<mxfile host="app.diagrams.net" modified="2020-10-09T11:52:18.182Z" agent="5.0 (Windows NT 10.0; Win64; x64) AppleWebKit/537.36 (KHTML, like Gecko) Chrome/85.0.4183.121 Safari/537.36" etag="lgiLuc583kR2NeWQEfdl" version="13.7.9" type="github">
  <diagram id="C5RBs43oDa-KdzZeNtuy" name="Page-1">
    <mxGraphModel dx="563" dy="349" grid="1" gridSize="10" guides="1" tooltips="1" connect="1" arrows="1" fold="1" page="1" pageScale="1" pageWidth="827" pageHeight="1169" math="0" shadow="0">
      <root>
        <mxCell id="WIyWlLk6GJQsqaUBKTNV-0" />
        <mxCell id="WIyWlLk6GJQsqaUBKTNV-1" parent="WIyWlLk6GJQsqaUBKTNV-0" />
        <mxCell id="y6MobFgG8BaBrXeKD1ZM-5" value="" style="edgeStyle=orthogonalEdgeStyle;rounded=0;orthogonalLoop=1;jettySize=auto;html=1;" edge="1" parent="WIyWlLk6GJQsqaUBKTNV-1" source="y6MobFgG8BaBrXeKD1ZM-1" target="y6MobFgG8BaBrXeKD1ZM-4">
          <mxGeometry relative="1" as="geometry" />
        </mxCell>
        <mxCell id="y6MobFgG8BaBrXeKD1ZM-3" value="Начало" style="rounded=1;whiteSpace=wrap;html=1;" vertex="1" parent="WIyWlLk6GJQsqaUBKTNV-1">
          <mxGeometry x="350" y="260" width="120" height="60" as="geometry" />
        </mxCell>
        <mxCell id="y6MobFgG8BaBrXeKD1ZM-8" value="" style="edgeStyle=orthogonalEdgeStyle;rounded=0;orthogonalLoop=1;jettySize=auto;html=1;exitX=0.475;exitY=1.009;exitDx=0;exitDy=0;exitPerimeter=0;entryX=0.467;entryY=0.009;entryDx=0;entryDy=0;entryPerimeter=0;" edge="1" parent="WIyWlLk6GJQsqaUBKTNV-1" source="y6MobFgG8BaBrXeKD1ZM-3" target="y6MobFgG8BaBrXeKD1ZM-4">
          <mxGeometry relative="1" as="geometry" />
        </mxCell>
        <mxCell id="y6MobFgG8BaBrXeKD1ZM-4" value="Ввод a, b" style="shape=parallelogram;perimeter=parallelogramPerimeter;whiteSpace=wrap;html=1;fixedSize=1;" vertex="1" parent="WIyWlLk6GJQsqaUBKTNV-1">
          <mxGeometry x="350" y="350" width="120" height="60" as="geometry" />
        </mxCell>
        <mxCell id="y6MobFgG8BaBrXeKD1ZM-10" value="" style="edgeStyle=orthogonalEdgeStyle;rounded=0;orthogonalLoop=1;jettySize=auto;html=1;" edge="1" parent="WIyWlLk6GJQsqaUBKTNV-1" source="y6MobFgG8BaBrXeKD1ZM-1" target="y6MobFgG8BaBrXeKD1ZM-9">
          <mxGeometry relative="1" as="geometry" />
        </mxCell>
        <mxCell id="y6MobFgG8BaBrXeKD1ZM-1" value="a + b" style="rounded=0;whiteSpace=wrap;html=1;" vertex="1" parent="WIyWlLk6GJQsqaUBKTNV-1">
          <mxGeometry x="350" y="440" width="120" height="60" as="geometry" />
        </mxCell>
        <mxCell id="y6MobFgG8BaBrXeKD1ZM-9" value="Конец" style="ellipse;whiteSpace=wrap;html=1;" vertex="1" parent="WIyWlLk6GJQsqaUBKTNV-1">
          <mxGeometry x="350" y="620" width="120" height="80" as="geometry" />
        </mxCell>
        <mxCell id="y6MobFgG8BaBrXeKD1ZM-11" value="Вывод" style="shape=parallelogram;perimeter=parallelogramPerimeter;whiteSpace=wrap;html=1;fixedSize=1;" vertex="1" parent="WIyWlLk6GJQsqaUBKTNV-1">
          <mxGeometry x="350" y="524" width="120" height="60" as="geometry" />
        </mxCell>
      </root>
    </mxGraphModel>
  </diagram>
</mxfile>
